<?xml version="1.0" encoding="utf-8"?>
<!-- Generator: Adobe Illustrator 24.2.3, SVG Export Plug-In . SVG Version: 6.00 Build 0)  -->
<svg version="1.1" id="Layer_1" xmlns="http://www.w3.org/2000/svg" xmlns:xlink="http://www.w3.org/1999/xlink" x="0px" y="0px"
	 viewBox="0 0 288 288" style="enable-background:new 0 0 288 288;" xml:space="preserve">
<style type="text/css">
	.st0{fill:#FFFFFF;}
</style>
<g>
	<g>
		<g>
			<g>
				<path class="st0" d="M231.5,224.5c3.3,0,6,2.7,6,6c0,3.3-2.7,6-6,6c-3.3,0-6-2.7-6-6C225.5,227.2,228.2,224.5,231.5,224.5z
					 M231.5,235.6c2.8,0,5.1-2.3,5.1-5.1c0-2.8-2.3-5.1-5.1-5.1c-2.8,0-5.1,2.3-5.1,5.1C226.4,233.3,228.7,235.6,231.5,235.6z
					 M230.2,233.9h-0.9V227h2.7c1.6,0,2.2,0.7,2.2,1.9c0,1.3-0.8,1.8-1.7,2l2.1,3h-1l-2.1-3h-1.2V233.9z M230.2,230.1h1.1
					c1,0,2,0,2-1.2c0-0.9-0.8-1.1-1.5-1.1h-1.5V230.1z"/>
			</g>
		</g>
		<g>
			<path class="st0" d="M148.4,114.4c-13.6,0-24.6,11-24.6,24.6c0,13.6,11,24.6,24.6,24.6c13.6,0,24.6-11,24.6-24.6
				C173,125.4,162,114.4,148.4,114.4z"/>
			<path class="st0" d="M144,36C84.4,36,36,84.4,36,144c0,59.6,48.4,108,108,108c59.6,0,108-48.4,108-108C252,84.4,203.6,36,144,36z
				 M174.5,177.3c-7.5,5.1-16.5,8.1-26.3,8.1c-9.2,0-17.8-2.3-25-6.9v35.7h-21.7h0v-78h0c0,0,0,0,0,0c0.1-1.6,0.2-3.1,0.4-4.6
				c0,0,0,0,0,0c0.2-1.5,0.5-3,0.8-4.5c0,0,0,0,0,0c0.3-1.5,0.8-2.9,1.2-4.3c0,0,0,0,0,0c0.5-1.4,1-2.7,1.6-4.1c0,0,0,0,0-0.1
				c0.6-1.3,1.3-2.6,2-3.8c0,0,0-0.1,0.1-0.1c0.7-1.2,1.5-2.4,2.3-3.6c0,0,0.1-0.1,0.1-0.1c0.8-1.1,1.7-2.2,2.6-3.3
				c0,0,0.1-0.1,0.1-0.1c0.9-1,1.9-2,2.9-3c0.1-0.1,0.1-0.1,0.2-0.2c1-0.9,2-1.8,3.1-2.7c0.1-0.1,0.1-0.1,0.2-0.2
				c1.1-0.8,2.2-1.6,3.3-2.4c0.1-0.1,0.2-0.1,0.2-0.2c1.2-0.7,2.3-1.4,3.6-2c0.1,0,0.2-0.1,0.3-0.1c1.2-0.6,2.5-1.2,3.8-1.7
				c0.1,0,0.2-0.1,0.3-0.1c1.3-0.5,2.6-1,4-1.4c0.1,0,0.2,0,0.2-0.1c1.4-0.4,2.8-0.7,4.2-1c0.1,0,0.1,0,0.2,0
				c1.4-0.3,2.9-0.5,4.4-0.6c0,0,0.1,0,0.1,0c1.5-0.1,3-0.2,4.6-0.2c0,0,0.1,0,0.1,0c0,0,0.1,0,0.1,0c25.8,0,46.7,20.9,46.7,46.7
				C195.1,154.7,186.9,168.9,174.5,177.3z"/>
		</g>
	</g>
</g>
</svg>
